<svg width="250" height="250" viewBox="0 0 250 250" fill="none" xmlns="http://www.w3.org/2000/svg">
<path d="M36.4008 180.503L71.9039 160.005C83.1015 153.54 96.9165 154.387 107.556 161.725C111.93 164.744 116.711 167.078 121.711 168.694C130.08 171.418 139.097 172.095 147.94 170.521C153.985 169.437 159.94 167.322 165.565 164.074C183.538 153.697 193.327 134.579 192.67 115.187C192.55 99.4787 198.551 84.1831 210.741 74.148L211.074 73.8714C212.999 72.2817 210.925 69.2996 208.772 70.5426L171.781 91.8995C160.397 97.3258 147.114 97.1024 136.564 90.4208C132.384 87.6415 127.848 85.4623 123.12 83.928C114.751 81.2036 105.734 80.5273 96.8909 82.1009C90.8464 83.1844 84.8912 85.2999 79.266 88.5476C61.4933 98.8087 51.7291 117.603 52.1425 136.769C52.4808 152.32 46.049 167.235 34.0701 177.148C32.1349 178.744 34.2267 181.758 36.4008 180.503ZM101.028 132.749L76.6595 146.818C74.4643 148.085 71.622 146.94 70.9988 144.472C67.3614 130.08 72.8531 114.512 85.3585 105.73C86.243 105.092 87.179 104.496 88.1499 103.935C93.9968 100.559 100.378 98.9862 106.677 99.0504C117.568 99.1228 128.163 104.094 135.159 113.043C136.195 114.373 137.153 115.79 138.025 117.299L138.043 117.331C139.109 119.178 141.496 119.826 143.353 118.754L167.859 104.605C169.991 103.374 172.762 104.42 173.46 106.775C177.808 121.545 172.37 137.814 159.483 146.886C158.599 147.523 157.663 148.12 156.692 148.681C150.845 152.056 144.464 153.63 138.165 153.565C126.891 153.489 115.925 148.168 108.958 138.612C108.958 138.612 107.546 136.36 106.318 134.184C105.256 132.32 102.896 131.67 101.039 132.743L101.028 132.749Z" fill="#202438"/>
</svg>
