<svg width="248" height="42" viewBox="0 0 248 42" fill="none" xmlns="http://www.w3.org/2000/svg">
<path d="M82.7058 24.9262C82.7378 24.9262 82.7618 24.9382 82.7818 24.9582C82.8018 24.9782 82.8098 24.9982 82.8098 25.0222V26.8586C82.8098 26.8906 82.8018 26.9146 82.7818 26.9346C82.7618 26.9546 82.7378 26.9626 82.7058 26.9626H69.1907C68.2465 26.9626 67.4424 26.6305 66.7782 25.9664C66.1141 25.3023 65.782 24.4981 65.782 23.5539V18.4527C65.782 17.5085 66.1141 16.7043 66.7782 16.0402C67.4424 15.376 68.2465 15.0439 69.1907 15.0439H82.7058C82.7378 15.0439 82.7618 15.0559 82.7818 15.072C82.8018 15.092 82.8098 15.116 82.8098 15.148V16.9844C82.8098 17.0084 82.8018 17.0284 82.7818 17.0484C82.7618 17.0684 82.7378 17.0804 82.7058 17.0804H69.1907C68.9067 17.0804 68.6626 17.1804 68.4626 17.3845C68.2625 17.5885 68.1665 17.8286 68.1665 18.1046V23.8979C68.1665 24.174 68.2665 24.4141 68.4626 24.6181C68.6626 24.8221 68.9027 24.9222 69.1907 24.9222H82.7058V24.9262Z" fill="#202438"/>
<path d="M99.9578 15.048C100.902 15.048 101.706 15.38 102.37 16.0442C103.034 16.7083 103.367 17.5125 103.367 18.4567V23.5579C103.367 24.5021 103.034 25.3063 102.37 25.9704C101.706 26.6346 100.902 26.9667 99.9578 26.9667H89.7435C88.8073 26.9667 88.0031 26.6346 87.3349 25.9704C86.6668 25.3063 86.3347 24.5021 86.3347 23.5579V18.4567C86.3347 17.5125 86.6668 16.7083 87.3349 16.0442C88.0031 15.38 88.8033 15.048 89.7435 15.048H99.9578ZM100.982 18.1087C100.982 17.8326 100.882 17.5925 100.686 17.3885C100.486 17.1845 100.246 17.0844 99.9578 17.0844H89.7435C89.4634 17.0844 89.2234 17.1845 89.0233 17.3885C88.8233 17.5925 88.7193 17.8326 88.7193 18.1087V23.902C88.7193 24.178 88.8193 24.4181 89.0233 24.6221C89.2274 24.8262 89.4674 24.9262 89.7435 24.9262H99.9578C100.242 24.9262 100.486 24.8262 100.686 24.6221C100.886 24.4181 100.982 24.178 100.982 23.902V18.1087Z" fill="#202438"/>
<path d="M123.911 19.645C123.911 20.3372 123.727 20.9573 123.363 21.5094C122.999 22.0615 122.515 22.4736 121.911 22.7417L121.959 22.8377L123.855 26.8186C123.863 26.8506 123.855 26.8826 123.843 26.9146C123.827 26.9466 123.799 26.9627 123.759 26.9627H121.338C121.298 26.9627 121.266 26.9426 121.242 26.9026L119.406 23.0538H109.276V26.8666C109.276 26.8906 109.268 26.9106 109.248 26.9306C109.228 26.9506 109.204 26.9587 109.172 26.9587H106.991C106.967 26.9587 106.947 26.9506 106.927 26.9306C106.907 26.9106 106.899 26.8906 106.899 26.8666V15.152C106.899 15.12 106.907 15.096 106.927 15.076C106.947 15.056 106.967 15.048 106.991 15.048H120.518C121.454 15.048 122.255 15.38 122.919 16.0442C123.583 16.7083 123.915 17.5125 123.915 18.4567V19.649L123.911 19.645ZM109.276 21.0053H120.514C120.79 21.0053 121.03 20.9053 121.23 20.7092C121.43 20.5092 121.526 20.2691 121.526 19.9811V18.1087C121.526 17.8326 121.426 17.5925 121.23 17.3925C121.03 17.1925 120.794 17.0964 120.514 17.0964H109.276V21.0053Z" fill="#202438"/>
<path d="M129.821 19.9811H142.655C142.687 19.9811 142.711 19.9932 142.731 20.0092C142.751 20.0292 142.759 20.0532 142.759 20.0852V21.9216C142.759 21.9536 142.751 21.9776 142.731 21.9976C142.711 22.0176 142.687 22.0256 142.655 22.0256H129.821V23.898C129.821 24.1741 129.921 24.4141 130.117 24.6182C130.317 24.8222 130.557 24.9223 130.845 24.9223H144.36C144.392 24.9223 144.416 24.9343 144.436 24.9543C144.456 24.9743 144.464 24.9943 144.464 25.0183V26.8547C144.464 26.8867 144.456 26.9107 144.436 26.9307C144.416 26.9507 144.392 26.9587 144.36 26.9587H130.845C129.901 26.9587 129.096 26.6266 128.432 25.9625C127.768 25.2983 127.436 24.4942 127.436 23.5499V18.4488C127.436 17.5046 127.768 16.7004 128.432 16.0363C129.096 15.3721 129.901 15.04 130.845 15.04H144.36C144.392 15.04 144.416 15.052 144.436 15.068C144.456 15.088 144.464 15.1121 144.464 15.1441V16.9805C144.464 17.0045 144.456 17.0245 144.436 17.0445C144.416 17.0645 144.392 17.0765 144.36 17.0765H130.845C130.561 17.0765 130.317 17.1765 130.117 17.3806C129.917 17.5846 129.821 17.8247 129.821 18.1007V19.9731V19.9811Z" fill="#202438"/>
<path d="M150.377 18.9568C150.377 19.2409 150.477 19.4849 150.673 19.685C150.873 19.885 151.109 19.985 151.389 19.985H161.615C162.552 19.985 163.352 20.3171 164.016 20.9813C164.68 21.6454 165.012 22.4496 165.012 23.3938V23.5618C165.012 24.4981 164.68 25.3022 164.016 25.9704C163.352 26.6385 162.552 26.9706 161.615 26.9706H148.769C148.745 26.9706 148.725 26.9626 148.705 26.9426C148.685 26.9226 148.677 26.8986 148.677 26.8666V25.0302C148.677 24.9982 148.685 24.9742 148.705 24.9542C148.725 24.9342 148.745 24.9262 148.769 24.9262H161.615C161.892 24.9262 162.132 24.8261 162.332 24.6301C162.532 24.43 162.628 24.194 162.628 23.9139V23.0577C162.628 22.7777 162.528 22.5376 162.332 22.3376C162.132 22.1335 161.896 22.0335 161.615 22.0335H151.389C150.453 22.0335 149.653 21.7014 148.989 21.0373C148.325 20.3731 147.992 19.5729 147.992 18.6367V18.4567C147.992 17.5205 148.325 16.7203 148.989 16.0562C149.653 15.392 150.453 15.0599 151.389 15.0599H164.236C164.26 15.0599 164.28 15.0719 164.3 15.0879C164.32 15.1079 164.328 15.128 164.328 15.152V17.0004C164.328 17.0244 164.32 17.0444 164.3 17.0644C164.28 17.0844 164.26 17.0964 164.236 17.0964H151.389C151.109 17.0964 150.873 17.1964 150.673 17.3925C150.473 17.5925 150.377 17.8326 150.377 18.1206V18.9688V18.9568Z" fill="#202438"/>
<path d="M168.537 15.144C168.537 15.12 168.545 15.1 168.565 15.08C168.585 15.06 168.605 15.052 168.629 15.052H182.156C183.092 15.052 183.893 15.3841 184.557 16.0482C185.221 16.7124 185.553 17.5126 185.553 18.4488V19.641C185.553 20.5852 185.221 21.3894 184.557 22.0536C183.893 22.7177 183.092 23.0498 182.156 23.0498H170.918V26.8627C170.918 26.8947 170.91 26.9187 170.89 26.9387C170.87 26.9587 170.846 26.9667 170.814 26.9667H168.633C168.609 26.9667 168.589 26.9587 168.569 26.9387C168.549 26.9187 168.541 26.8947 168.541 26.8627V15.148L168.537 15.144ZM182.156 21.0053C182.432 21.0053 182.672 20.9053 182.872 20.7013C183.072 20.4972 183.168 20.2572 183.168 19.9811V18.1087C183.168 17.8246 183.068 17.5806 182.872 17.3805C182.672 17.1805 182.436 17.0845 182.156 17.0845H170.918V21.0053H182.156Z" fill="#202438"/>
<path d="M191.462 19.9811H204.297C204.329 19.9811 204.353 19.9932 204.373 20.0092C204.393 20.0292 204.401 20.0532 204.401 20.0852V21.9216C204.401 21.9536 204.393 21.9776 204.373 21.9976C204.353 22.0176 204.329 22.0256 204.297 22.0256H191.462V23.898C191.462 24.1741 191.562 24.4141 191.758 24.6182C191.959 24.8222 192.199 24.9223 192.487 24.9223H206.002C206.034 24.9223 206.058 24.9343 206.078 24.9543C206.098 24.9743 206.106 24.9943 206.106 25.0183V26.8547C206.106 26.8867 206.098 26.9107 206.078 26.9307C206.058 26.9507 206.034 26.9587 206.002 26.9587H192.487C191.542 26.9587 190.738 26.6266 190.074 25.9625C189.41 25.2983 189.078 24.4942 189.078 23.5499V18.4488C189.078 17.5046 189.41 16.7004 190.074 16.0363C190.738 15.3721 191.542 15.04 192.487 15.04H206.002C206.034 15.04 206.058 15.052 206.078 15.068C206.098 15.088 206.106 15.1121 206.106 15.1441V16.9805C206.106 17.0045 206.098 17.0245 206.078 17.0445C206.058 17.0645 206.034 17.0765 206.002 17.0765H192.487C192.203 17.0765 191.959 17.1765 191.758 17.3806C191.558 17.5846 191.462 17.8247 191.462 18.1007V19.9731V19.9811Z" fill="#202438"/>
<path d="M212.019 19.9811H224.854C224.886 19.9811 224.91 19.9932 224.93 20.0092C224.95 20.0292 224.958 20.0532 224.958 20.0852V21.9216C224.958 21.9536 224.95 21.9776 224.93 21.9976C224.91 22.0176 224.886 22.0256 224.854 22.0256H212.019V23.898C212.019 24.1741 212.119 24.4141 212.315 24.6182C212.515 24.8222 212.755 24.9223 213.043 24.9223H226.558C226.59 24.9223 226.614 24.9343 226.634 24.9543C226.654 24.9743 226.662 24.9943 226.662 25.0183V26.8547C226.662 26.8867 226.654 26.9107 226.634 26.9307C226.614 26.9507 226.59 26.9587 226.558 26.9587H213.043C212.099 26.9587 211.295 26.6266 210.63 25.9625C209.966 25.2983 209.634 24.4942 209.634 23.5499V18.4488C209.634 17.5046 209.966 16.7004 210.63 16.0363C211.295 15.3721 212.099 15.04 213.043 15.04H226.558C226.59 15.04 226.614 15.052 226.634 15.068C226.654 15.088 226.662 15.1121 226.662 15.1441V16.9805C226.662 17.0045 226.654 17.0245 226.634 17.0445C226.614 17.0645 226.59 17.0765 226.558 17.0765H213.043C212.759 17.0765 212.515 17.1765 212.315 17.3806C212.115 17.5846 212.019 17.8247 212.019 18.1007V19.9731V19.9811Z" fill="#202438"/>
<path d="M243.798 15.048C244.742 15.048 245.547 15.38 246.211 16.0442C246.875 16.7083 247.207 17.5125 247.207 18.4567V23.5579C247.207 24.5021 246.875 25.3063 246.211 25.9704C245.547 26.6346 244.742 26.9667 243.798 26.9667H230.283C230.259 26.9667 230.239 26.9586 230.219 26.9386C230.199 26.9186 230.191 26.8946 230.191 26.8626V15.16C230.191 15.128 230.199 15.104 230.219 15.084C230.239 15.064 230.259 15.056 230.283 15.056H243.798V15.048ZM244.822 18.1087C244.822 17.8326 244.722 17.5925 244.526 17.3885C244.326 17.1845 244.086 17.0844 243.798 17.0844H232.572V24.9262H243.798C244.082 24.9262 244.326 24.8262 244.526 24.6221C244.726 24.4181 244.822 24.178 244.822 23.902V18.1087Z" fill="#202438"/>
<path d="M2.53182 39.2214L14.1864 32.4919C17.8633 30.3715 22.4003 30.6475 25.8931 33.0561C27.3294 34.0443 28.8977 34.8125 30.5381 35.3446C33.2867 36.2408 36.2474 36.4608 39.148 35.9447C41.1325 35.5886 43.0889 34.8965 44.9333 33.8282C50.8427 30.4155 54.0594 24.1261 53.8313 17.7446C53.6473 12.5715 55.7718 7.59034 59.7647 4.3016L59.8727 4.21358C60.5048 3.69346 59.8247 2.71324 59.1165 3.12133L46.9738 10.1309C43.353 12.2234 38.892 11.9633 35.4112 9.6428C34.0389 8.72659 32.5506 8.01443 30.9982 7.51432C28.2496 6.61812 25.2889 6.39807 22.3883 6.91418C20.4038 7.27026 18.4474 7.96642 16.603 9.03066C10.7577 12.4034 7.54894 18.5888 7.69698 24.8942C7.81701 29.9874 5.68853 34.8725 1.76365 38.1172C1.1275 38.6453 1.81566 39.6335 2.52782 39.2174L2.53182 39.2214ZM37.8878 18.8089L45.4895 14.4199C46.2936 13.9558 47.3459 14.3559 47.5939 15.2561C48.8982 20.0411 47.1018 25.2623 42.9369 28.191C42.6448 28.399 42.3408 28.5951 42.0207 28.7791C40.1003 29.8873 38.0078 30.4035 35.9393 30.3835C32.2385 30.3595 28.6377 28.6111 26.3492 25.4744C26.3492 25.4744 25.9971 24.9142 25.641 24.2981C25.1969 23.5379 24.2207 23.2779 23.4565 23.718L16.0349 28.0029C15.1467 28.515 14.0144 28.0149 13.7984 27.0147C12.7941 22.3977 14.6105 17.4886 18.6034 14.6799C18.8955 14.4719 19.1996 14.2758 19.5196 14.0918C21.4401 12.9835 23.5325 12.4674 25.601 12.4874C29.1778 12.5114 32.6546 14.1438 34.9511 17.0805C34.9511 17.0805 35.4272 17.6646 35.8713 18.3408C36.3154 19.0169 37.1956 19.2129 37.8878 18.8129V18.8089Z" fill="#202438"/>
</svg>
